<svg version="1.1" id="Layer_1" xmlns="http://www.w3.org/2000/svg" xmlns:xlink="http://www.w3.org/1999/xlink" x="0px" y="0px"
	 width="100%" viewBox="0 0 60 75" enable-background="new 0 0 60 75" xml:space="preserve">
<path fill="#F8F8F8" opacity="1.000000" stroke="none" 
	d="
M39.000290,76.000000 
	C26.000235,76.000000 13.500244,76.000000 1.000191,76.000000 
	C1.000127,51.000103 1.000127,26.000208 1.000064,1.000234 
	C20.999880,1.000156 40.999760,1.000156 60.999733,1.000078 
	C60.999821,25.999861 60.999821,50.999722 60.999908,75.999786 
	C53.833450,76.000000 46.666901,76.000000 39.000290,76.000000 
M34.486435,69.990273 
	C37.815453,69.990479 41.145634,70.046944 44.473225,69.978188 
	C49.945663,69.865112 52.875553,67.175507 52.911808,61.709755 
	C53.022217,45.065174 53.032421,28.418861 52.912003,11.774450 
	C52.873299,6.424891 49.856853,3.696425 44.343456,3.640774 
	C35.688778,3.553416 27.031681,3.542994 18.377325,3.645234 
	C12.815242,3.710942 10.056822,6.411627 10.030790,11.914811 
	C9.952052,28.559761 9.951349,45.205551 10.029160,61.850506 
	C10.054536,67.278496 12.897682,69.899132 18.511152,69.975761 
	C23.503819,70.043907 28.498150,69.990059 34.486435,69.990273 
z"/>
<path fill="#040404" opacity="1.000000" stroke="none" 
	d="
M33.989090,69.990166 
	C28.498150,69.990059 23.503819,70.043907 18.511152,69.975761 
	C12.897682,69.899132 10.054536,67.278496 10.029160,61.850506 
	C9.951349,45.205551 9.952052,28.559761 10.030790,11.914811 
	C10.056822,6.411627 12.815242,3.710942 18.377325,3.645234 
	C27.031681,3.542994 35.688778,3.553416 44.343456,3.640774 
	C49.856853,3.696425 52.873299,6.424891 52.912003,11.774450 
	C53.032421,28.418861 53.022217,45.065174 52.911808,61.709755 
	C52.875553,67.175507 49.945663,69.865112 44.473225,69.978188 
	C41.145634,70.046944 37.815453,69.990479 33.989090,69.990166 
M15.038301,21.603176 
	C15.038301,32.998383 15.038301,44.393589 15.038301,55.626709 
	C26.293543,55.626709 36.970436,55.626709 47.537918,55.626709 
	C47.537918,41.993698 47.537918,28.762972 47.537918,15.389872 
	C36.621357,15.389872 25.947412,15.389872 15.038356,15.389872 
	C15.038356,17.349369 15.038356,18.991653 15.038301,21.603176 
M30.002558,65.899666 
	C31.589836,65.194939 33.408203,64.745392 34.630959,63.638123 
	C35.024647,63.281620 34.205994,60.659985 33.290764,60.047207 
	C32.391350,59.445015 29.608486,59.787663 29.489681,60.220303 
	C29.042395,61.849121 29.344446,63.683720 30.002558,65.899666 
M27.723192,10.799291 
	C30.674639,10.799291 33.626087,10.799291 36.577534,10.799291 
	C36.581711,9.898816 36.585888,8.998341 36.590069,8.097866 
	C33.677452,8.097866 30.760670,8.025723 27.857731,8.193334 
	C27.512560,8.213264 27.242966,9.542142 27.723192,10.799291 
z"/>
<path fill="#F8F8F8" opacity="1.000000" stroke="none" 
	d="
M15.038328,21.118557 
	C15.038356,18.991653 15.038356,17.349369 15.038356,15.389872 
	C25.947412,15.389872 36.621357,15.389872 47.537918,15.389872 
	C47.537918,28.762972 47.537918,41.993698 47.537918,55.626709 
	C36.970436,55.626709 26.293543,55.626709 15.038301,55.626709 
	C15.038301,44.393589 15.038301,32.998383 15.038328,21.118557 
z"/>
<path fill="#DEDEDE" opacity="1.000000" stroke="none" 
	d="
M29.684204,65.670456 
	C29.344446,63.683720 29.042395,61.849121 29.489681,60.220303 
	C29.608486,59.787663 32.391350,59.445015 33.290764,60.047207 
	C34.205994,60.659985 35.024647,63.281620 34.630959,63.638123 
	C33.408203,64.745392 31.589836,65.194939 29.684204,65.670456 
z"/>
<path fill="#C2C2C2" opacity="1.000000" stroke="none" 
	d="
M27.330765,10.531785 
	C27.242966,9.542142 27.512560,8.213264 27.857731,8.193334 
	C30.760670,8.025723 33.677452,8.097866 36.590069,8.097866 
	C36.585888,8.998341 36.581711,9.898816 36.577534,10.799291 
	C33.626087,10.799291 30.674639,10.799291 27.330765,10.531785 
z"/>
</svg>