<svg version="1.1" id="Layer_1" xmlns="http://www.w3.org/2000/svg" xmlns:xlink="http://www.w3.org/1999/xlink" x="0px" y="0px"
	 width="100%" viewBox="0 0 225 225" enable-background="new 0 0 225 225" xml:space="preserve">
<path fill="#FEFEFE" opacity="1.000000" stroke="none" 
	d="
M156.000000,226.000000 
	C104.000000,226.000000 52.500008,226.000000 1.000007,226.000000 
	C1.000005,151.000000 1.000005,76.000015 1.000002,1.000017 
	C75.999992,1.000011 150.999985,1.000011 225.999969,1.000006 
	C225.999985,75.999985 225.999985,150.999969 226.000000,225.999969 
	C202.833328,226.000000 179.666672,226.000000 156.000000,226.000000 
M192.124680,168.523987 
	C191.476395,167.024216 191.214432,165.114059 190.122208,164.085907 
	C172.184189,147.200272 154.141495,130.425858 135.995331,113.508041 
	C155.248993,95.539696 174.320694,77.741165 193.464722,59.875145 
	C186.286270,52.179245 179.501190,44.905067 172.586990,37.492462 
	C152.693939,56.020966 133.133545,74.239632 113.496872,92.529343 
	C93.602806,73.990433 74.124924,55.839363 54.424332,37.480747 
	C47.353462,45.073399 40.498066,52.434677 33.552509,59.892769 
	C52.945900,77.988594 71.891479,95.666573 91.009430,113.505379 
	C71.705482,131.515091 52.732140,149.216354 33.537647,167.123947 
	C40.650768,174.732422 47.504063,182.062958 54.453053,189.495865 
	C74.380959,170.925964 93.863937,152.770660 113.503860,134.469116 
	C133.281708,152.891129 152.850967,171.118866 172.587936,189.502808 
	C179.165375,182.452438 185.409714,175.759109 192.124680,168.523987 
z"/>
<path fill="#020202" opacity="1.000000" stroke="none" 
	d="
M191.889374,168.794891 
	C185.409714,175.759109 179.165375,182.452438 172.587936,189.502808 
	C152.850967,171.118866 133.281708,152.891129 113.503860,134.469116 
	C93.863937,152.770660 74.380959,170.925964 54.453053,189.495865 
	C47.504063,182.062958 40.650768,174.732422 33.537647,167.123947 
	C52.732140,149.216354 71.705482,131.515091 91.009430,113.505379 
	C71.891479,95.666573 52.945900,77.988594 33.552509,59.892769 
	C40.498066,52.434677 47.353462,45.073399 54.424332,37.480747 
	C74.124924,55.839363 93.602806,73.990433 113.496872,92.529343 
	C133.133545,74.239632 152.693939,56.020966 172.586990,37.492462 
	C179.501190,44.905067 186.286270,52.179245 193.464722,59.875145 
	C174.320694,77.741165 155.248993,95.539696 135.995331,113.508041 
	C154.141495,130.425858 172.184189,147.200272 190.122208,164.085907 
	C191.214432,165.114059 191.476395,167.024216 191.889374,168.794891 
z"/>
</svg>