<svg version="1.1" id="Layer_1" xmlns="http://www.w3.org/2000/svg" xmlns:xlink="http://www.w3.org/1999/xlink" x="0px" y="0px"
	 width="100%" viewBox="0 0 185 85" enable-background="new 0 0 185 85" xml:space="preserve">
<path fill="#FAFAFA" opacity="1.000000" stroke="none" 
	d="
M138.000000,86.000000 
	C92.000008,86.000000 46.500011,86.000000 1.000012,86.000000 
	C1.000008,57.666676 1.000008,29.333351 1.000004,1.000020 
	C62.666653,1.000013 124.333305,1.000013 185.999969,1.000007 
	C185.999969,29.333313 185.999969,57.666626 185.999985,85.999969 
	C170.166672,86.000000 154.333328,86.000000 138.000000,86.000000 
M147.752869,53.498928 
	C147.751923,41.503864 147.830154,29.508072 147.719070,17.514029 
	C147.656845,10.797827 143.771729,6.865848 137.222702,6.852745 
	C109.567398,6.797414 81.911865,6.798186 54.256546,6.850005 
	C47.615276,6.862448 43.804325,10.694963 43.773018,17.438745 
	C43.693344,34.598038 43.693256,51.758259 43.779926,68.917503 
	C43.815968,76.053497 47.845722,80.039757 54.936024,80.051979 
	C82.091568,80.098785 109.247276,80.097893 136.402832,80.055702 
	C143.505920,80.044655 147.553253,76.060799 147.728882,68.991524 
	C147.848862,64.163132 147.752594,59.329361 147.752869,53.498928 
z"/>
<path fill="#0B0B0B" opacity="1.000000" stroke="none" 
	d="
M147.752930,53.998459 
	C147.752594,59.329361 147.848862,64.163132 147.728882,68.991524 
	C147.553253,76.060799 143.505920,80.044655 136.402832,80.055702 
	C109.247276,80.097893 82.091568,80.098785 54.936024,80.051979 
	C47.845722,80.039757 43.815968,76.053497 43.779926,68.917503 
	C43.693256,51.758259 43.693344,34.598038 43.773018,17.438745 
	C43.804325,10.694963 47.615276,6.862448 54.256546,6.850005 
	C81.911865,6.798186 109.567398,6.797414 137.222702,6.852745 
	C143.771729,6.865848 147.656845,10.797827 147.719070,17.514029 
	C147.830154,29.508072 147.751923,41.503864 147.752930,53.998459 
M136.098557,32.374161 
	C127.353256,39.806248 118.629402,47.263760 109.856735,54.663406 
	C100.726913,62.364315 90.640976,62.337410 81.430824,54.561119 
	C72.789719,47.265285 64.219620,39.885403 55.607941,32.554646 
	C54.200794,31.356804 52.740200,30.221750 50.691525,28.560894 
	C50.691525,42.626289 50.768284,55.609463 50.642029,68.590660 
	C50.606815,72.211586 52.236156,73.097816 55.517818,73.088585 
	C82.326317,73.013130 109.135391,72.989594 135.943527,73.114075 
	C139.873093,73.132332 140.728088,71.378105 140.696671,67.955605 
	C140.592789,56.633644 140.670273,45.310085 140.652649,33.987186 
	C140.650452,32.571266 140.495514,31.155588 140.376694,29.157112 
	C138.782272,30.345854 137.740433,31.122618 136.098557,32.374161 
M128.477493,13.836253 
	C108.682098,13.836306 88.886696,13.835757 69.091301,13.836845 
	C64.267220,13.837111 59.439423,13.727950 54.620277,13.883785 
	C51.038174,13.999619 49.665642,16.590982 51.499031,19.640606 
	C52.162148,20.743622 53.236832,21.639872 54.242424,22.490061 
	C64.647430,31.287071 75.051529,40.085522 85.508034,48.821136 
	C92.635788,54.775829 98.839806,54.703701 106.052498,48.648727 
	C116.109329,40.206135 126.136284,31.727913 136.160294,23.246361 
	C137.297165,22.284437 138.673004,21.379641 139.322968,20.128763 
	C140.021103,18.785162 140.526001,16.890526 140.094772,15.569456 
	C139.808151,14.691401 137.769150,14.067896 136.447113,13.915631 
	C134.148514,13.650893 131.797806,13.838686 128.477493,13.836253 
z"/>
<path fill="#F7F7F7" opacity="1.000000" stroke="none" 
	d="
M136.398575,32.136772 
	C137.740433,31.122618 138.782272,30.345854 140.376694,29.157112 
	C140.495514,31.155588 140.650452,32.571266 140.652649,33.987186 
	C140.670273,45.310085 140.592789,56.633644 140.696671,67.955605 
	C140.728088,71.378105 139.873093,73.132332 135.943527,73.114075 
	C109.135391,72.989594 82.326317,73.013130 55.517818,73.088585 
	C52.236156,73.097816 50.606815,72.211586 50.642029,68.590660 
	C50.768284,55.609463 50.691525,42.626289 50.691525,28.560894 
	C52.740200,30.221750 54.200794,31.356804 55.607941,32.554646 
	C64.219620,39.885403 72.789719,47.265285 81.430824,54.561119 
	C90.640976,62.337410 100.726913,62.364315 109.856735,54.663406 
	C118.629402,47.263760 127.353256,39.806248 136.398575,32.136772 
z"/>
<path fill="#F9F9F9" opacity="1.000000" stroke="none" 
	d="
M128.973206,13.836502 
	C131.797806,13.838686 134.148514,13.650893 136.447113,13.915631 
	C137.769150,14.067896 139.808151,14.691401 140.094772,15.569456 
	C140.526001,16.890526 140.021103,18.785162 139.322968,20.128763 
	C138.673004,21.379641 137.297165,22.284437 136.160294,23.246361 
	C126.136284,31.727913 116.109329,40.206135 106.052498,48.648727 
	C98.839806,54.703701 92.635788,54.775829 85.508034,48.821136 
	C75.051529,40.085522 64.647430,31.287071 54.242424,22.490061 
	C53.236832,21.639872 52.162148,20.743622 51.499031,19.640606 
	C49.665642,16.590982 51.038174,13.999619 54.620277,13.883785 
	C59.439423,13.727950 64.267220,13.837111 69.091301,13.836845 
	C88.886696,13.835757 108.682098,13.836306 128.973206,13.836502 
z"/>
</svg>