<svg id="svg" version="1.1" xmlns="http://www.w3.org/2000/svg" xmlns:xlink="http://www.w3.org/1999/xlink" width="400" height="363.1901840490798" viewBox="0, 0, 400,363.1901840490798"><g id="svgg"><path id="path0" d="M258.492 66.352 C 246.092 67.021,244.992 67.134,243.522 67.884 C 242.709 68.299,241.004 68.810,239.732 69.020 C 236.292 69.588,234.932 69.950,233.948 70.560 C 233.460 70.862,231.999 71.396,230.701 71.747 C 229.403 72.098,227.951 72.692,227.475 73.067 C 226.998 73.442,225.976 73.919,225.204 74.127 C 224.431 74.335,223.511 74.815,223.158 75.194 C 222.805 75.573,221.741 76.215,220.795 76.621 C 219.848 77.026,219.074 77.536,219.074 77.753 C 219.074 77.970,218.507 78.384,217.815 78.674 C 216.645 79.163,211.577 83.268,209.083 85.747 C 208.483 86.343,207.788 86.831,207.539 86.830 C 207.289 86.830,207.084 87.065,207.084 87.353 C 207.084 87.641,206.471 88.596,205.722 89.475 C 202.657 93.074,201.830 94.169,201.397 95.197 C 201.148 95.790,200.766 96.276,200.550 96.276 C 200.333 96.276,199.832 97.031,199.437 97.953 C 199.042 98.875,198.379 100.106,197.965 100.688 C 197.550 101.270,197.056 102.309,196.866 102.996 C 196.676 103.684,196.138 104.701,195.671 105.257 C 195.195 105.822,194.625 107.228,194.376 108.447 C 194.132 109.646,193.616 111.145,193.230 111.778 C 192.845 112.412,192.212 114.593,191.825 116.625 C 191.438 118.657,190.791 121.327,190.388 122.558 C 189.039 126.678,188.444 138.191,188.290 163.171 L 188.152 185.561 187.297 186.364 L 186.441 187.168 161.431 187.132 C 145.794 187.110,136.217 187.229,135.876 187.449 C 135.028 187.999,134.849 245.775,135.690 247.402 L 136.258 248.501 161.045 248.509 C 188.154 248.518,186.681 248.405,187.787 250.566 C 188.080 251.141,188.193 266.824,188.193 307.333 L 188.193 363.306 218.707 363.306 L 249.221 363.306 249.315 306.841 L 249.410 250.376 250.290 249.439 L 251.171 248.501 273.311 248.501 C 295.074 248.501,295.474 248.488,296.797 247.744 L 298.144 246.987 298.942 237.980 C 299.381 233.027,299.981 228.160,300.277 227.166 C 300.572 226.172,301.058 222.351,301.358 218.674 C 301.686 214.636,302.190 210.984,302.630 209.452 C 303.052 207.982,303.443 205.230,303.561 202.912 C 303.672 200.711,304.015 196.866,304.322 194.369 C 305.017 188.731,304.933 187.759,303.724 187.426 C 303.224 187.288,291.097 187.159,276.774 187.139 C 248.431 187.099,249.905 187.208,249.381 185.119 C 249.019 183.677,249.493 140.208,249.896 137.904 C 250.103 136.722,250.582 135.332,250.960 134.816 C 251.339 134.300,251.918 133.081,252.249 132.105 C 252.579 131.130,253.174 129.986,253.570 129.562 C 257.046 125.849,258.357 124.614,258.821 124.614 C 259.119 124.614,259.805 124.204,260.345 123.704 C 260.885 123.203,261.997 122.613,262.816 122.393 C 263.635 122.173,265.613 121.567,267.212 121.047 L 270.118 120.101 290.282 119.880 C 301.371 119.759,310.486 119.630,310.536 119.594 C 310.586 119.557,310.626 108.206,310.625 94.369 L 310.624 69.210 309.081 68.579 C 308.233 68.232,306.639 67.775,305.540 67.564 C 302.585 66.995,264.671 66.019,258.492 66.352 " stroke="none" fill="#f9fafb" fill-rule="evenodd"></path><path id="path1" d="M0.000 181.653 L 0.000 363.306 93.008 363.306 L 186.015 363.306 185.923 307.137 L 185.831 250.967 161.126 251.021 C 134.478 251.080,134.686 251.094,133.496 249.127 C 132.812 247.995,132.785 246.956,132.690 217.782 L 132.591 187.608 133.536 186.719 L 134.482 185.831 160.156 185.649 L 185.831 185.468 186.037 158.946 C 186.237 133.064,186.301 131.685,187.423 128.859 C 187.646 128.297,187.832 127.071,187.836 126.134 C 187.851 122.630,188.881 116.488,189.623 115.484 C 190.018 114.950,190.547 113.393,190.800 112.025 C 191.119 110.291,191.513 109.300,192.101 108.755 C 192.694 108.205,193.054 107.290,193.316 105.667 C 193.531 104.327,193.977 103.052,194.379 102.624 C 194.759 102.218,195.319 101.183,195.623 100.322 C 195.927 99.461,196.668 98.297,197.270 97.734 C 197.872 97.172,198.365 96.393,198.365 96.005 C 198.365 95.617,198.716 94.987,199.144 94.607 C 199.573 94.226,200.234 93.222,200.613 92.375 C 200.991 91.529,201.629 90.661,202.030 90.446 C 202.431 90.231,202.912 89.654,203.099 89.163 C 203.286 88.672,203.830 88.121,204.309 87.940 C 204.788 87.757,205.351 87.114,205.563 86.506 C 205.813 85.791,206.276 85.320,206.879 85.169 C 207.392 85.040,207.811 84.707,207.811 84.429 C 207.811 83.930,208.166 83.556,210.577 81.513 C 211.253 80.941,212.384 79.941,213.090 79.292 C 213.797 78.642,214.605 78.111,214.886 78.111 C 215.166 78.111,216.152 77.457,217.075 76.658 C 217.999 75.858,218.984 75.204,219.265 75.204 C 219.545 75.204,219.948 74.881,220.159 74.485 C 220.395 74.045,221.350 73.538,222.625 73.176 C 223.769 72.851,224.950 72.284,225.250 71.915 C 225.886 71.133,227.465 70.481,228.725 70.481 C 229.211 70.481,229.924 70.167,230.309 69.782 C 231.345 68.746,232.078 68.445,234.791 67.945 C 236.142 67.695,237.343 67.336,237.460 67.147 C 237.920 66.403,239.827 66.052,245.153 65.732 C 249.810 65.451,250.954 65.265,252.238 64.579 C 254.619 63.306,282.394 63.351,287.738 64.635 C 290.734 65.355,292.482 65.492,300.962 65.665 C 312.457 65.901,311.882 65.690,312.249 69.811 C 312.380 71.279,312.437 83.298,312.375 96.520 L 312.262 120.559 311.381 121.497 L 310.500 122.434 293.721 122.434 C 273.546 122.434,264.966 123.045,263.421 124.590 C 263.092 124.919,261.880 125.414,260.727 125.691 C 258.893 126.131,258.568 126.345,258.126 127.402 C 257.848 128.067,257.387 128.610,257.102 128.610 C 256.816 128.610,256.363 129.142,256.094 129.791 C 255.826 130.441,255.070 131.509,254.415 132.165 C 253.537 133.045,253.224 133.682,253.224 134.593 C 253.224 136.159,252.644 137.739,251.846 138.344 C 251.207 138.829,250.626 181.306,251.215 184.447 L 251.441 185.649 278.828 185.649 C 304.129 185.649,306.262 185.696,306.833 186.268 C 307.597 187.031,307.303 194.980,306.396 198.109 C 305.390 201.577,304.843 205.056,304.812 208.174 C 304.770 212.430,304.296 216.155,303.608 217.643 C 303.188 218.549,302.877 221.388,302.476 227.975 C 302.135 233.582,301.696 237.891,301.329 239.237 C 300.539 242.130,300.222 243.830,299.921 246.770 C 299.766 248.291,299.419 249.529,299.005 250.040 L 298.339 250.863 274.783 251.045 L 251.226 251.226 251.134 307.266 L 251.042 363.306 325.521 363.306 L 400.000 363.306 400.000 181.653 L 400.000 0.000 200.000 0.000 L 0.000 0.000 0.000 181.653 " stroke="none" fill="#4364b4" fill-rule="evenodd"></path><path id="path2" d="M254.496 63.897 C 253.697 64.046,252.519 64.444,251.879 64.782 C 251.042 65.224,249.153 65.491,245.158 65.731 C 239.828 66.052,237.920 66.403,237.460 67.147 C 237.343 67.336,236.142 67.695,234.791 67.945 C 232.078 68.445,231.345 68.746,230.309 69.782 C 229.924 70.167,229.211 70.481,228.725 70.481 C 227.465 70.481,225.886 71.133,225.250 71.915 C 224.950 72.284,223.769 72.851,222.625 73.176 C 221.350 73.538,220.395 74.045,220.159 74.485 C 219.948 74.881,219.545 75.204,219.265 75.204 C 218.984 75.204,217.999 75.858,217.075 76.658 C 216.152 77.457,215.166 78.111,214.886 78.111 C 214.605 78.111,213.777 78.662,213.045 79.337 C 212.314 80.011,211.205 80.988,210.581 81.509 C 208.320 83.397,207.811 83.933,207.811 84.429 C 207.811 84.707,207.392 85.040,206.879 85.169 C 206.276 85.320,205.813 85.791,205.563 86.506 C 205.351 87.114,204.788 87.757,204.309 87.940 C 203.830 88.121,203.286 88.672,203.099 89.163 C 202.912 89.654,202.431 90.231,202.030 90.446 C 201.629 90.661,200.991 91.529,200.613 92.375 C 200.234 93.222,199.573 94.226,199.144 94.607 C 198.716 94.987,198.365 95.617,198.365 96.005 C 198.365 96.393,197.872 97.172,197.270 97.734 C 196.668 98.297,195.927 99.461,195.623 100.322 C 195.319 101.183,194.759 102.218,194.379 102.624 C 193.977 103.052,193.531 104.327,193.316 105.667 C 193.054 107.290,192.694 108.205,192.101 108.755 C 191.513 109.300,191.119 110.291,190.800 112.025 C 190.547 113.393,190.018 114.950,189.623 115.484 C 188.881 116.488,187.851 122.630,187.836 126.134 C 187.832 127.071,187.646 128.297,187.423 128.859 C 186.301 131.685,186.237 133.064,186.037 158.946 L 185.831 185.468 160.156 185.649 L 134.482 185.831 133.536 186.719 L 132.591 187.608 132.690 217.782 C 132.785 246.956,132.812 247.995,133.496 249.127 C 134.686 251.094,134.478 251.080,161.126 251.021 L 185.831 250.967 185.923 307.137 C 185.984 344.161,186.138 363.306,186.377 363.306 C 186.969 363.306,186.868 251.723,186.276 250.913 C 185.842 250.320,184.206 250.281,161.080 250.308 C 134.615 250.338,135.389 250.381,134.591 248.839 C 134.014 247.723,133.769 188.100,134.338 187.248 C 135.143 186.042,136.079 185.998,160.992 186.020 C 178.404 186.036,185.883 185.924,186.162 185.646 C 186.436 185.372,186.621 177.365,186.764 159.564 C 186.946 136.788,187.039 133.676,187.581 132.095 C 187.917 131.114,188.194 129.479,188.195 128.462 C 188.198 125.608,189.192 119.642,190.168 116.621 C 190.652 115.123,191.163 113.324,191.302 112.625 C 191.442 111.926,192.026 110.472,192.599 109.395 C 193.173 108.318,193.644 107.091,193.647 106.670 C 193.649 106.249,194.041 105.222,194.517 104.390 C 194.993 103.557,195.573 102.300,195.805 101.597 C 196.037 100.893,196.585 99.869,197.023 99.320 C 197.462 98.771,198.229 97.642,198.728 96.810 C 199.228 95.979,199.964 94.764,200.363 94.110 C 203.268 89.361,212.369 80.059,215.864 78.267 C 216.530 77.925,217.566 77.244,218.165 76.754 C 219.901 75.334,223.172 73.388,223.824 73.388 C 224.153 73.388,225.058 72.953,225.835 72.422 C 226.612 71.891,227.918 71.252,228.737 71.003 C 229.556 70.753,231.028 70.152,232.007 69.668 C 232.986 69.183,234.768 68.584,235.967 68.337 C 237.166 68.090,239.120 67.561,240.310 67.161 C 241.504 66.760,244.343 66.283,246.651 66.095 C 248.950 65.907,252.227 65.469,253.935 65.120 C 258.118 64.267,274.848 64.297,284.287 65.176 C 287.884 65.510,294.914 65.929,299.909 66.105 C 309.585 66.447,310.799 66.662,311.360 68.137 C 311.982 69.774,311.831 119.595,311.201 120.457 C 310.706 121.135,309.968 121.170,292.218 121.345 C 274.795 121.517,273.484 121.576,269.028 122.390 C 264.520 123.212,258.399 125.504,257.999 126.518 C 257.927 126.700,257.314 127.403,256.636 128.081 C 255.959 128.758,255.404 129.441,255.403 129.597 C 255.403 129.754,254.926 130.439,254.345 131.120 C 253.763 131.800,253.081 133.108,252.829 134.026 C 252.577 134.944,252.031 136.349,251.617 137.148 C 250.876 138.575,250.863 139.027,250.863 162.216 L 250.863 185.831 278.234 186.013 L 305.605 186.194 306.297 187.049 C 306.680 187.522,306.919 188.252,306.832 188.684 C 306.746 189.113,306.579 190.609,306.460 192.007 C 306.342 193.406,306.011 195.286,305.725 196.185 C 305.438 197.084,304.871 201.335,304.464 205.631 C 304.058 209.927,303.480 214.342,303.180 215.441 C 302.881 216.540,302.473 219.728,302.273 222.525 C 301.797 229.206,301.206 234.614,300.804 235.967 C 300.626 236.567,300.216 239.428,299.892 242.325 C 298.911 251.095,301.615 250.272,273.717 250.297 C 253.028 250.316,251.486 250.361,251.010 250.954 C 250.575 251.496,250.526 259.837,250.681 307.539 L 250.862 363.488 251.044 307.357 L 251.226 251.226 274.783 251.045 L 298.339 250.863 299.005 250.040 C 299.419 249.529,299.766 248.291,299.921 246.770 C 300.222 243.830,300.539 242.130,301.329 239.237 C 301.696 237.891,302.135 233.582,302.476 227.975 C 302.877 221.388,303.188 218.549,303.608 217.643 C 304.296 216.155,304.770 212.430,304.812 208.174 C 304.843 205.056,305.390 201.577,306.396 198.109 C 307.303 194.980,307.597 187.031,306.833 186.268 C 306.262 185.696,304.129 185.649,278.828 185.649 L 251.441 185.649 251.215 184.447 C 250.626 181.306,251.207 138.829,251.846 138.344 C 252.644 137.739,253.224 136.159,253.224 134.593 C 253.224 133.682,253.537 133.045,254.415 132.165 C 255.070 131.509,255.826 130.441,256.094 129.791 C 256.363 129.142,256.816 128.610,257.102 128.610 C 257.387 128.610,257.848 128.067,258.126 127.402 C 258.568 126.345,258.893 126.131,260.727 125.691 C 261.880 125.414,263.092 124.919,263.421 124.590 C 264.966 123.045,273.546 122.434,293.721 122.434 L 310.500 122.434 311.381 121.497 L 312.262 120.559 312.375 96.520 C 312.437 83.298,312.380 71.279,312.249 69.811 C 311.882 65.690,312.482 65.908,300.782 65.644 C 292.370 65.454,290.348 65.300,287.738 64.650 C 284.469 63.836,258.031 63.237,254.496 63.897 " stroke="none" fill="#758dc4" fill-rule="evenodd"></path><path id="path3" d="M261.217 64.915 C 260.318 64.980,257.947 65.206,255.949 65.417 C 253.951 65.628,250.191 66.023,247.593 66.296 C 244.995 66.568,242.205 67.032,241.393 67.325 C 240.580 67.619,238.618 68.144,237.033 68.493 C 235.448 68.841,233.415 69.492,232.516 69.939 C 231.617 70.386,229.949 71.020,228.810 71.348 C 227.672 71.676,226.631 72.121,226.497 72.337 C 226.364 72.553,225.252 73.199,224.026 73.773 C 221.192 75.100,218.565 76.641,218.404 77.071 C 218.336 77.254,217.630 77.735,216.835 78.141 C 213.137 80.027,202.882 90.218,201.057 93.820 C 200.727 94.472,200.196 95.302,199.878 95.665 C 198.395 97.354,194.294 105.378,193.640 107.869 C 193.409 108.750,192.966 109.859,192.655 110.332 C 192.093 111.191,190.477 116.789,189.453 121.425 C 189.156 122.768,188.750 125.793,188.550 128.146 C 188.350 130.500,187.999 133.079,187.771 133.878 C 187.485 134.879,187.308 143.073,187.203 160.218 C 187.067 182.261,186.984 185.177,186.475 185.740 C 185.938 186.334,184.252 186.376,160.969 186.376 C 138.993 186.376,135.942 186.443,135.231 186.942 L 134.423 187.507 134.423 217.477 C 134.423 243.631,134.494 247.584,134.978 248.519 L 135.532 249.591 160.425 249.591 L 185.319 249.591 186.211 250.483 L 187.103 251.375 187.103 307.340 C 187.103 356.845,187.166 363.306,187.648 363.306 C 188.352 363.306,188.490 251.941,187.787 250.566 C 186.681 248.405,188.154 248.518,161.045 248.509 L 136.258 248.501 135.690 247.402 C 134.849 245.775,135.028 187.999,135.876 187.449 C 136.217 187.229,145.794 187.110,161.431 187.132 L 186.441 187.168 187.297 186.364 L 188.152 185.561 188.290 163.171 C 188.444 138.191,189.039 126.678,190.388 122.558 C 190.791 121.327,191.438 118.657,191.825 116.625 C 192.212 114.593,192.845 112.412,193.230 111.778 C 193.616 111.145,194.132 109.646,194.376 108.447 C 194.625 107.228,195.195 105.822,195.671 105.257 C 196.138 104.701,196.676 103.684,196.866 102.996 C 197.056 102.309,197.550 101.270,197.965 100.688 C 198.379 100.106,199.042 98.875,199.437 97.953 C 199.832 97.031,200.333 96.276,200.550 96.276 C 200.766 96.276,201.148 95.790,201.397 95.197 C 201.830 94.169,202.657 93.074,205.722 89.475 C 206.471 88.596,207.084 87.641,207.084 87.353 C 207.084 87.065,207.289 86.830,207.539 86.830 C 207.788 86.831,208.483 86.343,209.083 85.747 C 211.577 83.268,216.645 79.163,217.815 78.674 C 218.507 78.384,219.074 77.970,219.074 77.753 C 219.074 77.536,219.848 77.026,220.795 76.621 C 221.741 76.215,222.805 75.573,223.158 75.194 C 223.511 74.815,224.431 74.335,225.204 74.127 C 225.976 73.919,226.998 73.442,227.475 73.067 C 227.951 72.692,229.403 72.098,230.701 71.747 C 231.999 71.396,233.460 70.862,233.948 70.560 C 234.932 69.950,236.292 69.588,239.732 69.020 C 241.004 68.810,242.707 68.299,243.518 67.886 C 246.490 66.370,264.963 65.956,291.371 66.815 C 304.100 67.229,306.329 67.451,309.081 68.578 L 310.624 69.210 310.625 94.369 C 310.626 108.206,310.586 119.557,310.536 119.594 C 310.486 119.630,301.371 119.759,290.282 119.880 L 270.118 120.101 267.212 121.047 C 265.613 121.567,263.635 122.173,262.816 122.393 C 261.997 122.613,260.885 123.203,260.345 123.704 C 259.805 124.204,259.119 124.614,258.821 124.614 C 258.357 124.614,257.046 125.849,253.570 129.562 C 253.174 129.986,252.579 131.130,252.249 132.105 C 251.918 133.081,251.339 134.300,250.960 134.816 C 250.582 135.332,250.103 136.722,249.896 137.904 C 249.493 140.208,249.019 183.677,249.381 185.119 C 249.905 187.208,248.431 187.099,276.774 187.139 C 291.097 187.159,303.224 187.288,303.724 187.426 C 304.933 187.759,305.017 188.731,304.322 194.369 C 304.015 196.866,303.672 200.711,303.561 202.912 C 303.443 205.230,303.052 207.982,302.630 209.452 C 302.190 210.984,301.686 214.636,301.358 218.674 C 301.058 222.351,300.572 226.172,300.277 227.166 C 299.981 228.160,299.381 233.027,298.942 237.980 L 298.144 246.987 296.797 247.744 C 295.474 248.488,295.074 248.501,273.311 248.501 L 251.171 248.501 250.290 249.439 L 249.410 250.376 249.315 306.841 C 249.231 357.139,249.281 363.306,249.773 363.306 C 250.264 363.306,250.324 357.150,250.314 307.300 C 250.306 260.079,250.383 251.176,250.809 250.534 C 251.311 249.778,251.472 249.772,274.159 249.591 C 297.943 249.402,298.316 249.376,298.787 247.866 C 298.896 247.516,299.239 244.777,299.549 241.780 C 299.859 238.783,300.188 236.084,300.280 235.783 C 300.657 234.547,301.556 227.182,301.921 222.327 C 302.136 219.473,302.633 215.577,303.025 213.669 C 303.418 211.761,303.983 207.497,304.282 204.192 C 304.580 200.887,305.149 196.599,305.546 194.662 C 306.445 190.270,306.486 187.736,305.666 187.056 C 305.172 186.646,300.323 186.540,278.172 186.458 C 258.624 186.385,251.142 186.244,250.777 185.941 C 249.891 185.206,250.269 138.660,251.175 136.998 C 251.547 136.316,252.150 134.888,252.516 133.824 C 253.746 130.249,257.253 126.311,260.812 124.509 C 266.684 121.535,269.248 121.238,291.044 121.004 C 306.477 120.839,310.268 120.703,310.753 120.301 C 311.459 119.714,311.695 69.619,310.998 68.316 C 310.386 67.172,308.487 66.816,301.181 66.476 C 297.284 66.295,290.745 65.975,286.649 65.765 C 271.447 64.986,264.426 64.670,263.649 64.732 C 263.211 64.767,262.116 64.849,261.217 64.915 " stroke="none" fill="#a4b4d4" fill-rule="evenodd"></path><path id="path4" d="M256.841 64.676 C 253.159 65.196,250.960 65.795,253.588 65.562 C 262.380 64.782,265.097 64.697,271.333 65.011 C 275.061 65.199,280.563 65.431,283.560 65.527 L 289.010 65.702 284.105 65.208 C 277.898 64.582,259.982 64.233,256.841 64.676 M249.505 66.015 C 249.957 66.102,250.611 66.099,250.958 66.008 C 251.305 65.917,250.936 65.846,250.136 65.850 C 249.337 65.854,249.053 65.928,249.505 66.015 M290.372 66.023 C 291.122 66.101,292.348 66.101,293.097 66.023 C 293.847 65.945,293.233 65.881,291.735 65.881 C 290.236 65.881,289.623 65.945,290.372 66.023 M242.144 66.682 C 241.144 66.957,238.937 67.524,237.239 67.944 C 235.540 68.363,233.252 69.125,232.153 69.637 C 231.054 70.148,229.500 70.767,228.701 71.011 C 227.902 71.256,226.612 71.891,225.835 72.422 C 225.058 72.953,224.153 73.388,223.824 73.388 C 223.172 73.388,219.901 75.334,218.165 76.754 C 217.566 77.244,216.530 77.925,215.864 78.267 C 212.369 80.059,203.268 89.361,200.363 94.110 C 199.964 94.764,199.228 95.979,198.728 96.810 C 198.229 97.642,197.462 98.771,197.023 99.320 C 196.585 99.869,196.037 100.893,195.805 101.597 C 195.573 102.300,194.993 103.557,194.517 104.390 C 194.041 105.222,193.658 106.231,193.667 106.630 C 193.679 107.169,193.795 107.075,194.117 106.267 C 195.339 103.198,198.709 96.996,199.878 95.665 C 200.196 95.302,200.727 94.472,201.057 93.820 C 202.882 90.218,213.137 80.027,216.835 78.141 C 217.630 77.735,218.336 77.254,218.404 77.071 C 218.565 76.641,221.192 75.100,224.026 73.773 C 225.252 73.199,226.364 72.553,226.497 72.337 C 226.631 72.121,227.672 71.676,228.810 71.348 C 229.949 71.020,231.617 70.383,232.516 69.932 C 233.415 69.482,235.132 68.911,236.331 68.665 C 237.530 68.419,239.573 67.885,240.872 67.479 C 242.171 67.073,244.214 66.624,245.413 66.481 L 247.593 66.221 245.777 66.202 C 244.777 66.192,243.143 66.408,242.144 66.682 M302.997 66.455 C 308.291 66.753,310.426 67.248,310.993 68.307 C 311.695 69.618,311.464 119.710,310.753 120.301 C 310.268 120.703,306.477 120.839,291.044 121.004 C 269.248 121.238,266.684 121.535,260.812 124.509 C 257.253 126.311,253.746 130.249,252.516 133.824 C 252.150 134.888,251.588 136.267,251.266 136.889 C 250.944 137.511,250.700 138.641,250.724 139.401 L 250.767 140.781 251.051 139.098 C 251.207 138.172,251.575 137.028,251.868 136.555 C 252.160 136.082,252.599 134.944,252.843 134.026 C 253.087 133.108,253.763 131.800,254.345 131.120 C 254.926 130.439,255.403 129.754,255.403 129.597 C 255.404 129.441,255.959 128.758,256.636 128.081 C 257.314 127.403,257.927 126.700,257.999 126.518 C 258.399 125.504,264.520 123.212,269.028 122.390 C 273.484 121.576,274.795 121.517,292.218 121.345 C 309.968 121.170,310.706 121.135,311.201 120.457 C 311.831 119.595,311.982 69.774,311.360 68.137 C 310.829 66.742,309.548 66.441,303.542 66.303 L 298.093 66.178 302.997 66.455 M192.464 109.688 C 191.917 110.804,191.371 112.207,191.252 112.807 C 191.133 113.406,190.642 115.123,190.161 116.621 C 189.190 119.652,188.198 125.623,188.195 128.462 C 188.194 129.479,187.917 131.114,187.581 132.095 C 187.039 133.676,186.946 136.791,186.764 159.612 C 186.564 184.540,186.536 185.361,185.852 185.861 C 185.465 186.144,185.317 186.376,185.524 186.376 C 187.040 186.376,187.042 186.339,187.203 160.218 C 187.308 143.059,187.485 134.880,187.771 133.878 C 188.000 133.079,188.356 130.463,188.562 128.065 C 188.768 125.668,189.155 122.725,189.423 121.526 C 190.546 116.487,191.984 111.604,192.817 110.000 C 193.308 109.056,193.653 108.143,193.585 107.971 C 193.516 107.800,193.012 108.572,192.464 109.688 M250.405 163.171 C 250.334 181.373,250.408 185.635,250.798 185.959 C 251.135 186.239,259.323 186.388,278.172 186.458 C 300.323 186.540,305.172 186.646,305.666 187.056 C 306.484 187.735,306.440 190.405,305.541 194.665 C 305.148 196.527,304.747 199.388,304.650 201.023 L 304.472 203.996 304.958 200.363 C 305.225 198.365,305.617 196.301,305.829 195.777 C 306.041 195.253,306.317 193.618,306.443 192.144 C 306.569 190.670,306.743 189.113,306.830 188.684 C 306.918 188.250,306.681 187.524,306.297 187.049 L 305.605 186.194 278.234 186.013 L 250.863 185.831 250.677 163.306 L 250.491 140.781 250.405 163.171 M135.332 186.447 C 134.932 186.673,134.485 187.036,134.338 187.253 C 133.769 188.094,134.014 247.723,134.591 248.839 C 135.389 250.381,134.616 250.338,161.052 250.308 C 178.614 250.287,185.872 250.395,186.157 250.680 C 186.444 250.967,186.610 267.012,186.742 307.284 L 186.926 363.488 187.014 307.431 L 187.103 251.375 186.211 250.483 L 185.319 249.591 160.425 249.591 L 135.532 249.591 134.978 248.519 C 134.098 246.818,134.142 187.788,135.024 187.056 C 135.515 186.649,140.108 186.524,160.183 186.371 L 184.741 186.184 160.400 186.110 C 142.798 186.056,135.857 186.149,135.332 186.447 M304.196 206.358 C 304.196 207.457,304.264 207.906,304.347 207.357 C 304.431 206.807,304.431 205.908,304.347 205.359 C 304.264 204.809,304.196 205.259,304.196 206.358 M303.782 209.315 C 303.750 209.843,303.397 211.863,302.997 213.806 C 302.598 215.748,302.291 217.850,302.316 218.478 C 302.358 219.531,302.382 219.506,302.625 218.165 C 302.770 217.366,303.170 215.379,303.514 213.750 C 303.857 212.122,304.071 210.241,303.989 209.572 C 303.869 208.591,303.829 208.541,303.782 209.315 M301.973 221.809 C 301.897 224.358,300.971 232.292,300.462 234.756 C 300.269 235.688,299.858 238.877,299.549 241.841 C 299.239 244.805,298.896 247.516,298.787 247.866 C 298.316 249.376,297.943 249.402,274.159 249.591 C 251.472 249.772,251.311 249.778,250.809 250.534 C 250.311 251.285,250.011 362.757,250.506 363.252 C 250.606 363.352,250.683 338.208,250.678 307.376 C 250.670 265.899,250.775 251.187,251.082 250.817 C 251.425 250.404,255.323 250.314,273.705 250.297 C 301.617 250.272,298.911 251.095,299.892 242.325 C 300.216 239.428,300.631 236.567,300.814 235.967 C 301.320 234.315,302.336 223.479,302.178 221.425 C 302.039 219.624,302.038 219.626,301.973 221.809 " stroke="none" fill="#8c9ccc" fill-rule="evenodd"></path></g></svg>