<svg version="1.1" id="Layer_1" xmlns="http://www.w3.org/2000/svg" xmlns:xlink="http://www.w3.org/1999/xlink" x="0px" y="0px"
	 width="100%" viewBox="0 0 84 64" enable-background="new 0 0 84 64" xml:space="preserve">
<path fill="#FFFFFF" opacity="1.000000" stroke="none" 
	d="
M57.000000,65.000000 
	C38.000004,65.000000 19.500006,65.000000 1.000007,65.000000 
	C1.000005,43.666676 1.000005,22.333347 1.000003,1.000016 
	C28.999987,1.000011 56.999973,1.000011 84.999969,1.000005 
	C84.999985,22.333319 84.999985,43.666637 84.999992,64.999977 
	C75.833336,65.000000 66.666664,65.000000 57.000000,65.000000 
M31.501249,9.000000 
	C25.735382,9.000000 19.969515,9.000000 14.288549,9.000000 
	C14.288549,13.315858 14.288549,17.056324 14.288549,20.715239 
	C34.315422,20.715239 54.052464,20.715239 73.711395,20.715239 
	C73.711395,16.684029 73.711395,12.943559 73.711395,9.000000 
	C59.782799,9.000000 46.141712,9.000000 31.501249,9.000000 
M57.498379,39.000000 
	C62.931194,39.000000 68.364014,39.000000 73.711502,39.000000 
	C73.711502,34.684223 73.711502,30.943764 73.711502,27.284683 
	C53.684700,27.284683 33.947685,27.284683 14.288520,27.284683 
	C14.288520,31.315807 14.288520,35.056267 14.288520,39.000000 
	C28.550297,39.000000 42.524529,39.000000 57.498379,39.000000 
M14.000000,51.477013 
	C14.000000,53.238304 14.000000,54.999596 14.000000,56.796570 
	C34.237564,56.796570 53.928238,56.796570 73.808777,56.796570 
	C73.808777,52.864285 73.808777,49.135433 73.808777,45.297943 
	C53.806473,45.297943 33.996651,45.297943 14.000000,45.297943 
	C14.000000,47.237465 14.000000,48.880184 14.000000,51.477013 
z"/>
<path fill="#000000" opacity="1.000000" stroke="none" 
	d="
M32.000938,9.000000 
	C46.141712,9.000000 59.782799,9.000000 73.711395,9.000000 
	C73.711395,12.943559 73.711395,16.684029 73.711395,20.715239 
	C54.052464,20.715239 34.315422,20.715239 14.288549,20.715239 
	C14.288549,17.056324 14.288549,13.315858 14.288549,9.000000 
	C19.969515,9.000000 25.735382,9.000000 32.000938,9.000000 
z"/>
<path fill="#000000" opacity="1.000000" stroke="none" 
	d="
M56.998569,39.000000 
	C42.524529,39.000000 28.550297,39.000000 14.288520,39.000000 
	C14.288520,35.056267 14.288520,31.315807 14.288520,27.284683 
	C33.947685,27.284683 53.684700,27.284683 73.711502,27.284683 
	C73.711502,30.943764 73.711502,34.684223 73.711502,39.000000 
	C68.364014,39.000000 62.931194,39.000000 56.998569,39.000000 
z"/>
<path fill="#000000" opacity="1.000000" stroke="none" 
	d="
M14.000000,50.999958 
	C14.000000,48.880184 14.000000,47.237465 14.000000,45.297943 
	C33.996651,45.297943 53.806473,45.297943 73.808777,45.297943 
	C73.808777,49.135433 73.808777,52.864285 73.808777,56.796570 
	C53.928238,56.796570 34.237564,56.796570 14.000000,56.796570 
	C14.000000,54.999596 14.000000,53.238304 14.000000,50.999958 
z"/>
</svg>