<svg version="1.1" id="Layer_1" xmlns="http://www.w3.org/2000/svg" xmlns:xlink="http://www.w3.org/1999/xlink" x="0px" y="0px"
	 width="100%" viewBox="0 0 225 225" enable-background="new 0 0 225 225" xml:space="preserve">
<path fill="#0C64C5" opacity="1.000000" stroke="none" 
	d="
M115.000000,226.000000 
	C76.666672,226.000000 38.833340,226.000000 1.000005,226.000000 
	C1.000003,151.000000 1.000003,76.000015 1.000002,1.000015 
	C75.999992,1.000010 150.999985,1.000010 225.999969,1.000005 
	C225.999985,75.999985 225.999985,150.999969 226.000000,225.999969 
	C189.166672,226.000000 152.333328,226.000000 115.000000,226.000000 
M77.599144,92.101379 
	C69.802116,91.888214 62.005455,91.652542 54.207016,91.527588 
	C53.812489,91.521263 53.402657,92.470207 52.889381,93.909264 
	C52.889381,120.845673 52.889381,147.782089 52.889381,174.751343 
	C61.807400,174.751343 70.179474,174.751343 78.550850,174.751343 
	C78.681389,173.899521 78.819107,173.419373 78.819366,172.939163 
	C78.833290,147.277527 78.845963,121.615868 78.802879,95.954300 
	C78.801086,94.886444 78.267136,93.819489 77.599144,92.101379 
M120.185501,128.935349 
	C120.485184,127.309044 120.658951,125.647202 121.106140,124.062523 
	C123.154823,116.802788 130.137909,112.090012 137.322708,113.036156 
	C143.846237,113.895226 147.460831,118.682152 147.728531,127.249649 
	C147.627670,127.525230 147.688965,127.772568 148.103699,128.912964 
	C148.103699,144.183167 148.103699,159.453369 148.103699,174.970535 
	C156.911682,174.970535 165.330734,174.970535 174.313431,174.970535 
	C174.313431,157.500549 174.313431,140.241013 174.821075,122.756920 
	C174.631699,121.843414 174.442337,120.929901 174.026978,119.210838 
	C172.658646,106.516945 167.351562,96.347275 154.518295,92.327797 
	C141.010895,88.097176 129.273880,91.406822 120.237244,102.760689 
	C120.107719,102.923431 119.669418,102.840408 118.899574,102.923309 
	C118.899574,99.660324 118.899574,96.446732 118.899574,93.403168 
	C110.384361,93.403168 102.350159,93.403168 94.449951,93.403168 
	C94.449951,120.843964 94.449951,147.865677 94.449951,174.984085 
	C103.211990,174.984085 111.669991,174.984085 120.801941,174.623093 
	C121.188934,173.753662 121.907745,172.886276 121.913078,172.014511 
	C121.991188,159.251144 122.022903,146.486755 121.906776,133.724060 
	C121.894730,132.399734 120.869667,131.084610 120.185501,128.935349 
M57.510616,79.158936 
	C58.241589,79.542496 58.944427,79.997437 59.707958,80.298393 
	C66.106834,82.820641 72.693382,81.408180 76.973755,76.626534 
	C81.112740,72.002838 81.951828,65.621277 79.166801,59.947659 
	C76.384201,54.279011 70.849083,51.325012 63.936085,51.993874 
	C57.679264,52.599251 53.398155,56.067001 51.584755,61.956451 
	C49.543339,68.586441 51.273132,74.376480 57.510616,79.158936 
M175.477783,174.498215 
	C175.477783,174.498215 175.518997,174.481216 175.477783,174.498215 
z"/>
<path fill="#FDFEFE" opacity="1.000000" stroke="none" 
	d="
M120.127991,174.984085 
	C111.669991,174.984085 103.211990,174.984085 94.449951,174.984085 
	C94.449951,147.865677 94.449951,120.843964 94.449951,93.403168 
	C102.350159,93.403168 110.384361,93.403168 118.899574,93.403168 
	C118.899574,96.446732 118.899574,99.660324 118.899574,102.923309 
	C119.669418,102.840408 120.107719,102.923431 120.237244,102.760689 
	C129.273880,91.406822 141.010895,88.097176 154.518295,92.327797 
	C167.351562,96.347275 172.658646,106.516945 174.078613,119.982719 
	C174.191299,121.496887 174.252365,122.239182 174.313431,122.981468 
	C174.313431,140.241013 174.313431,157.500549 174.313431,174.970535 
	C165.330734,174.970535 156.911682,174.970535 148.103699,174.970535 
	C148.103699,159.453369 148.103699,144.183167 148.065445,128.206543 
	C147.978119,127.339233 147.929031,127.178345 147.879929,127.017448 
	C147.460831,118.682152 143.846237,113.895226 137.322708,113.036156 
	C130.137909,112.090012 123.154823,116.802788 121.106140,124.062523 
	C120.658951,125.647202 120.485184,127.309044 120.167725,129.763748 
	C120.142632,145.389465 120.135315,160.186768 120.127991,174.984085 
z"/>
<path fill="#FDFEFE" opacity="1.000000" stroke="none" 
	d="
M77.981102,92.752113 
	C78.267136,93.819489 78.801086,94.886444 78.802879,95.954300 
	C78.845963,121.615868 78.833290,147.277527 78.819366,172.939163 
	C78.819107,173.419373 78.681389,173.899521 78.550850,174.751343 
	C70.179474,174.751343 61.807400,174.751343 52.889381,174.751343 
	C52.889381,147.782089 52.889381,120.845673 53.412102,93.411453 
	C61.950253,92.859795 69.965675,92.805954 77.981102,92.752113 
z"/>
<path fill="#FBFCFE" opacity="1.000000" stroke="none" 
	d="
M57.189423,78.969894 
	C51.273132,74.376480 49.543339,68.586441 51.584755,61.956451 
	C53.398155,56.067001 57.679264,52.599251 63.936085,51.993874 
	C70.849083,51.325012 76.384201,54.279011 79.166801,59.947659 
	C81.951828,65.621277 81.112740,72.002838 76.973755,76.626534 
	C72.693382,81.408180 66.106834,82.820641 59.707958,80.298393 
	C58.944427,79.997437 58.241589,79.542496 57.189423,78.969894 
z"/>
<path fill="#0061C4" opacity="1.000000" stroke="none" 
	d="
M120.464966,174.803589 
	C120.135315,160.186768 120.142632,145.389465 120.232292,130.178680 
	C120.869667,131.084610 121.894730,132.399734 121.906776,133.724060 
	C122.022903,146.486755 121.991188,159.251144 121.913078,172.014511 
	C121.907745,172.886276 121.188934,173.753662 120.464966,174.803589 
z"/>
<path fill="#0061C2" opacity="1.000000" stroke="none" 
	d="
M77.790123,92.426743 
	C69.965675,92.805954 61.950253,92.859795 53.467388,92.944008 
	C53.402657,92.470207 53.812489,91.521263 54.207016,91.527588 
	C62.005455,91.652542 69.802116,91.888214 77.790123,92.426743 
z"/>
<path fill="#0061C4" opacity="1.000000" stroke="none" 
	d="
M174.567261,122.869194 
	C174.252365,122.239182 174.191299,121.496887 174.191605,120.385498 
	C174.442337,120.929901 174.631699,121.843414 174.567261,122.869194 
z"/>
<path fill="#005ABC" opacity="1.000000" stroke="none" 
	d="
M147.804230,127.133545 
	C147.929031,127.178345 147.978119,127.339233 147.969788,127.745888 
	C147.688965,127.772568 147.627670,127.525230 147.804230,127.133545 
z"/>
<path fill="#0061C4" opacity="1.000000" stroke="none" 
	d="
M175.498383,174.489716 
	C175.518997,174.481216 175.477783,174.498215 175.498383,174.489716 
z"/>
</svg>