<svg version="1.1" id="Layer_1" xmlns="http://www.w3.org/2000/svg" xmlns:xlink="http://www.w3.org/1999/xlink" x="0px" y="0px"
	 width="100%" viewBox="0 0 346 373" enable-background="new 0 0 346 373" xml:space="preserve">
<path fill="#FEFEFE" opacity="1.000000" stroke="none" 
	d="
M189.000000,374.000000 
	C126.021729,374.000000 63.543461,374.000000 1.032594,374.000000 
	C1.032594,249.731628 1.032594,125.463249 1.032594,1.097436 
	C116.228210,1.097436 231.456528,1.097436 346.842407,1.097436 
	C346.842407,125.333176 346.842407,249.666565 346.842407,374.000000 
	C294.463348,374.000000 241.981674,374.000000 189.000000,374.000000 
M170.752609,13.103981 
	C167.785385,13.530309 164.792725,13.826681 161.854660,14.401938 
	C85.629021,29.326515 44.088810,113.216888 81.064049,181.510941 
	C111.862068,238.395554 145.792877,293.585083 178.412582,349.480774 
	C181.670700,355.063721 185.653992,354.647003 189.222153,348.528534 
	C221.238708,293.628632 253.595383,238.922104 285.059204,183.706909 
	C301.177795,155.420700 303.798615,124.840500 293.888458,93.855247 
	C276.735535,40.224724 228.139328,8.412636 170.752609,13.103981 
z"/>
<path fill="#030303" opacity="1.000000" stroke="none" 
	d="
M171.202972,13.050949 
	C228.139328,8.412636 276.735535,40.224724 293.888458,93.855247 
	C303.798615,124.840500 301.177795,155.420700 285.059204,183.706909 
	C253.595383,238.922104 221.238708,293.628632 189.222153,348.528534 
	C185.653992,354.647003 181.670700,355.063721 178.412582,349.480774 
	C145.792877,293.585083 111.862068,238.395554 81.064049,181.510941 
	C44.088810,113.216888 85.629021,29.326515 161.854660,14.401938 
	C164.792725,13.826681 167.785385,13.530309 171.202972,13.050949 
M135.805710,94.343330 
	C111.036377,131.445618 130.647232,178.248276 174.332245,186.289536 
	C215.476273,193.863083 252.115753,152.914398 239.918030,112.697502 
	C232.745361,89.048607 216.676926,74.348839 192.276596,70.524467 
	C169.338821,66.929337 150.515060,75.406059 135.805710,94.343330 
z"/>
<path fill="#FCFCFC" opacity="1.000000" stroke="none" 
	d="
M136.019836,94.056152 
	C150.515060,75.406059 169.338821,66.929337 192.276596,70.524467 
	C216.676926,74.348839 232.745361,89.048607 239.918030,112.697502 
	C252.115753,152.914398 215.476273,193.863083 174.332245,186.289536 
	C130.647232,178.248276 111.036377,131.445618 136.019836,94.056152 
z"/>
</svg>